<svg width="240" height="160" viewBox="0 0 240 160" fill="none" xmlns="http://www.w3.org/2000/svg">
<path d="M95.9199 124.598C95.9199 116.598 94.1005 108.518 89.8727 101.742C82.4338 89.8247 68.3283 85.1049 55.3949 82.6678C47.931 81.2621 40.356 80.6678 32.7866 80.2821C31.5005 80.2164 15.9199 79.7993 15.9199 80.1193L15.9199 160L53.606 160C91.5005 160 95.9199 141.846 95.9199 124.598Z" fill="#BCB3FF"/>
<path d="M95.9199 44.5981C95.9199 36.5984 94.1005 28.5186 89.8727 21.7416C82.4338 9.82484 68.3283 5.10497 55.3949 2.6679C47.931 1.26222 40.356 0.667951 32.7866 0.282247C31.5005 0.216535 15.9199 -0.200591 15.9199 0.1194L15.9199 80L53.606 80C91.5005 80 95.9199 61.8462 95.9199 44.5981Z" fill="#BCB3FF"/>
<path d="M163.324 40.0001H156.678C105.62 40.0001 96.001 67.0632 96.001 99.1105C96.001 132.937 105.62 160 156.678 160H163.324C214.382 160 224.001 132.937 224.001 99.1105C224.001 67.0632 214.382 40.0001 163.324 40.0001Z" fill="#BCB3FF"/>
</svg>
