<svg width="221" height="50" viewBox="0 0 221 50" fill="none" xmlns="http://www.w3.org/2000/svg">
<path d="M8.38677 10.5198L31.5847 4.70495L30.3562 2.42461C29.5525 0.942391 27.5921 0.3303 25.978 1.06841L5.21094 10.5198H8.38677Z" fill="white"/>
<path d="M38.7863 4.8728C38.4988 4.8728 38.2112 4.90881 37.9237 4.98082L32.4739 6.34902L15.8301 10.5196H34.7217H42.9554L41.936 7.08713C41.5439 5.74893 40.2239 4.8728 38.7863 4.8728Z" fill="white"/>
<path fill-rule="evenodd" clip-rule="evenodd" d="M0 16.3859C0 14.1768 1.79086 12.3859 4 12.3859H44.6372C46.8464 12.3859 48.6372 14.1768 48.6372 16.3859V45.3925C48.6372 47.6016 46.8464 49.3925 44.6372 49.3925H4C1.79086 49.3925 0 47.6016 0 45.3925V16.3859ZM25.9017 17.6723H31.7199V41.5141H25.9017V39.9474C24.71 41.3097 23.051 41.9909 20.9246 41.9909C18.588 41.9909 16.6252 41.1394 15.0363 39.4365C13.4708 37.7108 12.688 35.565 12.688 32.9992C12.688 30.4333 13.4708 28.2989 15.0363 26.596C16.6252 24.8703 18.588 24.0074 20.9246 24.0074C23.051 24.0074 24.71 24.6886 25.9017 26.051V17.6723ZM19.5577 35.6899C20.2353 36.3711 21.1233 36.7117 22.2215 36.7117C23.3197 36.7117 24.2076 36.3711 24.8853 35.6899C25.5629 35.0087 25.9017 34.1118 25.9017 32.9992C25.9017 31.8866 25.5629 30.9897 24.8853 30.3085C24.2076 29.6273 23.3197 29.2867 22.2215 29.2867C21.1233 29.2867 20.2353 29.6273 19.5577 30.3085C18.8801 30.9897 18.5413 31.8866 18.5413 32.9992C18.5413 34.1118 18.8801 35.0087 19.5577 35.6899ZM40.7072 33.5325C42.1671 33.5325 43.3506 32.349 43.3506 30.8891C43.3506 29.4293 42.1671 28.2458 40.7072 28.2458C39.2474 28.2458 38.0639 29.4293 38.0639 30.8891C38.0639 32.349 39.2474 33.5325 40.7072 33.5325Z" fill="white"/>
<path d="M81.1442 16.9739H86.7924V43.3321H81.1442V41.5624C79.8137 43.0936 77.9435 43.8593 75.5336 43.8593C73.0484 43.8593 70.9272 42.9054 69.17 40.9975C67.4128 39.0646 66.5342 36.7049 66.5342 33.9185C66.5342 31.132 67.4128 28.7849 69.17 26.877C70.9272 24.9441 73.0484 23.9776 75.5336 23.9776C77.9435 23.9776 79.8137 24.7433 81.1442 26.2746V16.9739ZM73.425 37.2697C74.2534 38.0981 75.3328 38.5123 76.6633 38.5123C77.9937 38.5123 79.0732 38.0981 79.9016 37.2697C80.73 36.4413 81.1442 35.3242 81.1442 33.9185C81.1442 32.5127 80.73 31.3956 79.9016 30.5672C79.0732 29.7388 77.9937 29.3246 76.6633 29.3246C75.3328 29.3246 74.2534 29.7388 73.425 30.5672C72.5966 31.3956 72.1824 32.5127 72.1824 33.9185C72.1824 35.3242 72.5966 36.4413 73.425 37.2697Z" fill="white"/>
<path d="M96.1325 21.869C95.4798 22.5217 94.6891 22.848 93.7603 22.848C92.8314 22.848 92.0281 22.5217 91.3504 21.869C90.6977 21.1912 90.3713 20.3879 90.3713 19.4591C90.3713 18.5303 90.6977 17.7395 91.3504 17.0868C92.0281 16.4091 92.8314 16.0702 93.7603 16.0702C94.6891 16.0702 95.4798 16.4091 96.1325 17.0868C96.8103 17.7395 97.1492 18.5303 97.1492 19.4591C97.1492 20.3879 96.8103 21.1912 96.1325 21.869ZM90.9362 43.3321V24.5048H96.5843V43.3321H90.9362Z" fill="white"/>
<path d="M105.881 30.0024C105.881 30.3789 106.194 30.6927 106.822 30.9437C107.475 31.1697 108.253 31.4082 109.157 31.6592C110.06 31.8851 110.964 32.1864 111.868 32.5629C112.771 32.9394 113.537 33.567 114.165 34.4456C114.817 35.2991 115.144 36.3786 115.144 37.6839C115.144 39.7173 114.391 41.2611 112.884 42.3154C111.378 43.3447 109.521 43.8593 107.312 43.8593C103.345 43.8593 100.647 42.3657 99.2158 39.3784L104.111 36.5919C104.613 38.073 105.68 38.8136 107.312 38.8136C108.667 38.8136 109.345 38.4245 109.345 37.6463C109.345 37.2697 109.019 36.9559 108.366 36.7049C107.738 36.4539 106.973 36.2154 106.069 35.9895C105.165 35.7384 104.261 35.4247 103.358 35.0481C102.454 34.6465 101.676 34.0314 101.023 33.203C100.396 32.3746 100.082 31.3579 100.082 30.153C100.082 28.195 100.785 26.6762 102.19 25.5968C103.621 24.5174 105.379 23.9776 107.462 23.9776C109.019 23.9776 110.437 24.3291 111.717 25.032C112.997 25.7098 114.027 26.7013 114.805 28.0067L109.985 30.6049C109.383 29.5003 108.542 28.9481 107.462 28.9481C106.408 28.9481 105.881 29.2995 105.881 30.0024Z" fill="white"/>
<path d="M138.122 24.5048H144.147L138.122 43.3321H132.85L129.838 33.2783L126.826 43.3321H121.554L115.529 24.5048H121.554L124.265 34.5962L127.202 24.5048H132.474L135.411 34.5962L138.122 24.5048Z" fill="white"/>
<path d="M159.322 24.5048H164.97V43.3321H159.322V41.5624C157.991 43.0936 156.121 43.8593 153.711 43.8593C151.226 43.8593 149.105 42.9054 147.348 40.9975C145.59 39.0646 144.712 36.7049 144.712 33.9185C144.712 31.132 145.59 28.7849 147.348 26.877C149.105 24.9441 151.226 23.9776 153.711 23.9776C156.121 23.9776 157.991 24.7433 159.322 26.2746V24.5048ZM151.602 37.2697C152.431 38.0981 153.51 38.5123 154.841 38.5123C156.171 38.5123 157.251 38.0981 158.079 37.2697C158.907 36.4413 159.322 35.3242 159.322 33.9185C159.322 32.5127 158.907 31.3956 158.079 30.5672C157.251 29.7388 156.171 29.3246 154.841 29.3246C153.51 29.3246 152.431 29.7388 151.602 30.5672C150.774 31.3956 150.36 32.5127 150.36 33.9185C150.36 35.3242 150.774 36.4413 151.602 37.2697Z" fill="white"/>
<path d="M169.114 43.3321V15.8442H174.762V43.3321H169.114Z" fill="white"/>
<path d="M178.895 43.3321V15.8442H184.543V43.3321H178.895Z" fill="white"/>
<path d="M193.722 36.1777C194.375 37.935 195.881 38.8136 198.241 38.8136C199.772 38.8136 200.977 38.3366 201.856 37.3827L206.374 39.9809C204.516 42.5665 201.78 43.8593 198.165 43.8593C195.002 43.8593 192.467 42.9179 190.559 41.0352C188.676 39.1525 187.735 36.7802 187.735 33.9185C187.735 31.0818 188.664 28.7221 190.521 26.8394C192.404 24.9316 194.814 23.9776 197.751 23.9776C200.487 23.9776 202.759 24.9316 204.567 26.8394C206.399 28.7221 207.315 31.0818 207.315 33.9185C207.315 34.7218 207.24 35.4749 207.09 36.1777H193.722ZM193.609 31.9604H201.705C201.153 29.9773 199.822 28.9857 197.714 28.9857C195.53 28.9857 194.161 29.9773 193.609 31.9604Z" fill="white"/>
<path d="M221 29.9271H217.122V36.5919C217.122 37.345 217.423 37.822 218.026 38.0228C218.628 38.2236 219.62 38.2864 221 38.2111V43.3321C217.411 43.7087 214.925 43.3698 213.545 42.3154C212.164 41.236 211.474 39.3282 211.474 36.5919V29.9271H208.461V24.5048H211.474V20.9276L217.122 19.2332V24.5048H221V29.9271Z" fill="white"/>
</svg>
